ffmpeg version 3.3.3 Copyright (c) 2000-2017 the FFmpeg developers
  built with gcc 7.1.0 (GCC)
  configuration: --enable-gpl --enable-version3 --enable-cuda --enable-cuvid --enable-d3d11va --enable-dxva2 --enable-libmfx --enable-nvenc --enable-avisynth --enable-bzlib --enable-fontconfig --enable-frei0r --enable-gnutls --enable-iconv --enable-libass --enable-libbluray --enable-libbs2b --enable-libcaca --enable-libfreetype --enable-libgme --enable-libgsm --enable-libilbc --enable-libmodplug --enable-libmp3lame --enable-libopencore-amrnb --enable-libopencore-amrwb --enable-libopenh264 --enable-libopenjpeg --enable-libopus --enable-librtmp --enable-libsnappy --enable-libsoxr --enable-libspeex --enable-libtheora --enable-libtwolame --enable-libvidstab --enable-libvo-amrwbenc --enable-libvorbis --enable-libvpx --enable-libwavpack --enable-libwebp --enable-libx264 --enable-libx265 --enable-libxavs --enable-libxvid --enable-libzimg --enable-lzma --enable-zlib
  libavutil      55. 58.100 / 55. 58.100
  libavcodec     57. 89.100 / 57. 89.100
  libavformat    57. 71.100 / 57. 71.100
  libavdevice    57.  6.100 / 57.  6.100
  libavfilter     6. 82.100 /  6. 82.100
  libswscale      4.  6.100 /  4.  6.100
  libswresample   2.  7.100 /  2.  7.100
  libpostproc    54.  5.100 / 54.  5.100
Splitting the commandline.
Reading option '-v' ... matched as option 'v' (set logging level) with argument 'debug'.
Reading option '-nostdin' ... matched as option 'stdin' (enable or disable interaction on standard input) with argument 0.
Reading option '-progress' ... matched as option 'progress' (write program-readable progress information) with argument 'C:/Users/Dr.Seuss/AppData/Local/Temp/KritaFFmpegProgress.gF2296'.
Reading option '-r' ... matched as option 'r' (set frame rate (Hz value, fraction or abbreviation)) with argument '24'.
Reading option '-start_number' ... matched as AVOption 'start_number' with argument '0'.
Reading option '-i' ... matched as input url with argument 'C:/Users/Dr.Seuss/Documents/School/Cmpt 276/animations/Renders/User/Metal/Animated/frame%04d.png'.
Reading option '-i' ... matched as input url with argument 'C:/Users/Dr.Seuss/Documents/School/Cmpt 276/animations/Renders/User/Metal/Animated/palette.png'.
Reading option '-lavfi' ... matched as option 'lavfi' (create a complex filtergraph) with argument '[0:v][1:v] paletteuse'.
Reading option '-y' ... matched as option 'y' (overwrite output files) with argument '1'.
Reading option 'C:/Users/Dr.Seuss/Documents/School/Cmpt 276/animations/Renders/User/Metal/Animated/heroMetal.gif' ... matched as output url.
Finished splitting the commandline.
Parsing a group of options: global .
Applying option v (set logging level) with argument debug.
Applying option nostdin (enable or disable interaction on standard input) with argument 0.
Applying option progress (write program-readable progress information) with argument C:/Users/Dr.Seuss/AppData/Local/Temp/KritaFFmpegProgress.gF2296.
[file @ 000000000049ad40] Setting default whitelist 'file,crypto'
Applying option lavfi (create a complex filtergraph) with argument [0:v][1:v] paletteuse.
Applying option y (overwrite output files) with argument 1.
Successfully parsed a group of options.
Parsing a group of options: input url C:/Users/Dr.Seuss/Documents/School/Cmpt 276/animations/Renders/User/Metal/Animated/frame%04d.png.
Applying option r (set frame rate (Hz value, fraction or abbreviation)) with argument 24.
Successfully parsed a group of options.
Opening an input file: C:/Users/Dr.Seuss/Documents/School/Cmpt 276/animations/Renders/User/Metal/Animated/frame%04d.png.
[image2 @ 00000000005a9500] Opening 'C:/Users/Dr.Seuss/Documents/School/Cmpt 276/animations/Renders/User/Metal/Animated/frame0000.png' for reading
[file @ 00000000005ad300] Setting default whitelist 'file,crypto'
[AVIOContext @ 00000000004abfc0] Statistics: 12310 bytes read, 0 seeks
[image2 @ 00000000005a9500] Opening 'C:/Users/Dr.Seuss/Documents/School/Cmpt 276/animations/Renders/User/Metal/Animated/frame0001.png' for reading
[file @ 00000000004af280] Setting default whitelist 'file,crypto'
[AVIOContext @ 00000000004abfc0] Statistics: 13769 bytes read, 0 seeks
[image2 @ 00000000005a9500] Opening 'C:/Users/Dr.Seuss/Documents/School/Cmpt 276/animations/Renders/User/Metal/Animated/frame0002.png' for reading
[file @ 00000000004af280] Setting default whitelist 'file,crypto'
[AVIOContext @ 00000000005ad300] Statistics: 13624 bytes read, 0 seeks
[image2 @ 00000000005a9500] Opening 'C:/Users/Dr.Seuss/Documents/School/Cmpt 276/animations/Renders/User/Metal/Animated/frame0003.png' for reading
[file @ 00000000004e5dc0] Setting default whitelist 'file,crypto'
[AVIOContext @ 00000000004e5ea0] Statistics: 13625 bytes read, 0 seeks
[image2 @ 00000000005a9500] Opening 'C:/Users/Dr.Seuss/Documents/School/Cmpt 276/animations/Renders/User/Metal/Animated/frame0004.png' for reading
[file @ 00000000004e5dc0] Setting default whitelist 'file,crypto'
[AVIOContext @ 00000000004e5ea0] Statistics: 13634 bytes read, 0 seeks
Input #0, image2, from 'C:/Users/Dr.Seuss/Documents/School/Cmpt 276/animations/Renders/User/Metal/Animated/frame%04d.png':
  Duration: 00:00:00.20, start: 0.000000, bitrate: N/A
    Stream #0:0, 5, 1/25: Video: png, 1 reference frame, rgba(pc), 200x200 [SAR 11811:11811 DAR 1:1], 0/1, 25 fps, 25 tbr, 25 tbn, 25 tbc
Successfully opened the file.
Parsing a group of options: input url C:/Users/Dr.Seuss/Documents/School/Cmpt 276/animations/Renders/User/Metal/Animated/palette.png.
Successfully parsed a group of options.
Opening an input file: C:/Users/Dr.Seuss/Documents/School/Cmpt 276/animations/Renders/User/Metal/Animated/palette.png.
[NULL @ 00000000005ae8c0] Opening 'C:/Users/Dr.Seuss/Documents/School/Cmpt 276/animations/Renders/User/Metal/Animated/palette.png' for reading
[file @ 00000000004e5e40] Setting default whitelist 'file,crypto'
[png_pipe @ 00000000005ae8c0] Format png_pipe probed with size=2048 and score=99
[png_pipe @ 00000000005ae8c0] Before avformat_find_stream_info() pos: 0 bytes read:732 seeks:0 nb_streams:1
[png_pipe @ 00000000005ae8c0] After avformat_find_stream_info() pos: 732 bytes read:732 seeks:0 frames:1
Input #1, png_pipe, from 'C:/Users/Dr.Seuss/Documents/School/Cmpt 276/animations/Renders/User/Metal/Animated/palette.png':
  Duration: N/A, bitrate: N/A
    Stream #1:0, 1, 1/25: Video: png, 1 reference frame, rgba(pc), 16x16 [SAR 1:1 DAR 1:1], 0/1, 25 tbr, 25 tbn, 25 tbc
Successfully opened the file.
detected 8 logical cores
Parsing a group of options: output url C:/Users/Dr.Seuss/Documents/School/Cmpt 276/animations/Renders/User/Metal/Animated/heroMetal.gif.
Successfully parsed a group of options.
Opening an output file: C:/Users/Dr.Seuss/Documents/School/Cmpt 276/animations/Renders/User/Metal/Animated/heroMetal.gif.
[file @ 00000000004a5cc0] Setting default whitelist 'file,crypto'
Successfully opened the file.
Stream mapping:
  Stream #0:0 (png) -> paletteuse:default
  Stream #1:0 (png) -> paletteuse:palette
  paletteuse -> Stream #0:0 (gif)
cur_dts is invalid (this is harmless if it occurs once at the start per stream)
    Last message repeated 7 times
[graph 0 input from stream 0:0 @ 00000000004d7060] Setting 'video_size' to value '200x200'
[graph 0 input from stream 0:0 @ 00000000004d7060] Setting 'pix_fmt' to value '28'
[graph 0 input from stream 0:0 @ 00000000004d7060] Setting 'time_base' to value '1/24'
[graph 0 input from stream 0:0 @ 00000000004d7060] Setting 'pixel_aspect' to value '11811/11811'
[graph 0 input from stream 0:0 @ 00000000004d7060] Setting 'sws_param' to value 'flags=2'
[graph 0 input from stream 0:0 @ 00000000004d7060] Setting 'frame_rate' to value '24/1'
[graph 0 input from stream 0:0 @ 00000000004d7060] w:200 h:200 pixfmt:rgba tb:1/24 fr:24/1 sar:11811/11811 sws_param:flags=2
[graph 0 input from stream 1:0 @ 00000000004c8b40] Setting 'video_size' to value '16x16'
[graph 0 input from stream 1:0 @ 00000000004c8b40] Setting 'pix_fmt' to value '28'
[graph 0 input from stream 1:0 @ 00000000004c8b40] Setting 'time_base' to value '1/25'
[graph 0 input from stream 1:0 @ 00000000004c8b40] Setting 'pixel_aspect' to value '1/1'
[graph 0 input from stream 1:0 @ 00000000004c8b40] Setting 'sws_param' to value 'flags=2'
[graph 0 input from stream 1:0 @ 00000000004c8b40] Setting 'frame_rate' to value '25/1'
[graph 0 input from stream 1:0 @ 00000000004c8b40] w:16 h:16 pixfmt:rgba tb:1/25 fr:25/1 sar:1/1 sws_param:flags=2
[format @ 00000000004c8cc0] compat: called with args=[rgb8|bgr8|rgb4_byte|bgr4_byte|gray|pal8]
[format @ 00000000004c8cc0] Setting 'pix_fmts' to value 'rgb8|bgr8|rgb4_byte|bgr4_byte|gray|pal8'
[auto_scaler_0 @ 000000000389eda0] w:iw h:ih flags:'bilinear' interl:0
[Parsed_paletteuse_0 @ 00000000004af300] auto-inserting filter 'auto_scaler_0' between the filter 'graph 0 input from stream 0:0' and the filter 'Parsed_paletteuse_0'
[auto_scaler_1 @ 000000000389ef40] w:iw h:ih flags:'bilinear' interl:0
[Parsed_paletteuse_0 @ 00000000004af300] auto-inserting filter 'auto_scaler_1' between the filter 'graph 0 input from stream 1:0' and the filter 'Parsed_paletteuse_0'
[AVFilterGraph @ 00000000004d6fc0] query_formats: 5 queried, 2 merged, 2 already done, 0 delayed
[swscaler @ 00000000039b4360] Forcing full internal H chroma due to input having non subsampled chroma
[auto_scaler_0 @ 000000000389eda0] w:200 h:200 fmt:rgba sar:11811/11811 -> w:200 h:200 fmt:bgra sar:1/1 flags:0x2
[swscaler @ 00000000039c1f00] Forcing full internal H chroma due to input having non subsampled chroma
[auto_scaler_1 @ 000000000389ef40] w:16 h:16 fmt:rgba sar:1/1 -> w:16 h:16 fmt:bgra sar:1/1 flags:0x2
[Parsed_paletteuse_0 @ 00000000004af300] [framesync @ 0000000003930d68] Selected 1/600 time base
[Parsed_paletteuse_0 @ 00000000004af300] [framesync @ 0000000003930d68] Sync level 2
Output #0, gif, to 'C:/Users/Dr.Seuss/Documents/School/Cmpt 276/animations/Renders/User/Metal/Animated/heroMetal.gif':
  Metadata:
    encoder         : Lavf57.71.100
    Stream #0:0, 0, 1/100: Video: gif, 1 reference frame, pal8, 200x200 [SAR 1:1 DAR 1:1], 0/1, q=2-31, 200 kb/s, 24 fps, 100 tbn, 24 tbc (default)
    Metadata:
      encoder         : Lavc57.89.100 gif
Clipping frame in rate conversion by 0.000008
[gif @ 00000000004a50a0] 101x103 image at pos (48;47) [area:200x200]
[gif @ 00000000004a50a0] 101x102 image at pos (47;48) [area:200x200]
[gif @ 00000000004a50a0] 101x101 image at pos (47;48) [area:200x200]
[gif @ 00000000004a50a0] 101x101 image at pos (47;47) [area:200x200]
[Parsed_paletteuse_0 @ 00000000004af300] [framesync @ 0000000003930d68] Sync level 0
[out_0_0 @ 00000000004d3560] EOF on sink link out_0_0:default.
No more output streams to write to, finishing.
frame=    5 fps=0.0 q=-0.0 Lsize=      15kB time=00:00:00.18 bitrate= 700.0kbits/s speed=  12x    
[AVIOContext @ 00000000005a93e0] Statistics: 0 seeks, 1 writeouts
video:15kB audio:0kB subtitle:0kB other streams:0kB global headers:0kB muxing overhead: 5.641266%
Input file #0 (C:/Users/Dr.Seuss/Documents/School/Cmpt 276/animations/Renders/User/Metal/Animated/frame%04d.png):
  Input stream #0:0 (video): 5 packets read (66962 bytes); 5 frames decoded; 
  Total: 5 packets (66962 bytes) demuxed
Input file #1 (C:/Users/Dr.Seuss/Documents/School/Cmpt 276/animations/Renders/User/Metal/Animated/palette.png):
  Input stream #1:0 (video): 1 packets read (732 bytes); 1 frames decoded; 
  Total: 1 packets (732 bytes) demuxed
Output file #0 (C:/Users/Dr.Seuss/Documents/School/Cmpt 276/animations/Renders/User/Metal/Animated/heroMetal.gif):
  Output stream #0:0 (video): 5 frames encoded; 5 packets muxed (14908 bytes); 
  Total: 5 packets (14908 bytes) muxed
6 frames successfully decoded, 0 decoding errors
[AVIOContext @ 00000000004a5dc0] Statistics: 0 seeks, 6 writeouts
[AVIOContext @ 00000000004e9c00] Statistics: 732 bytes read, 0 seeks
